<svg xmlns="http://www.w3.org/2000/svg" viewBox="0 0 32 32">
  <rect width="32" height="32" rx="4" fill="#0E5A33"/>
  <g transform="translate(0.57 0.21) scale(0.4286)">
    <defs>
      <clipPath id="fav-clip">
        <path d="M11 46 C9 36 13 27 23 23 C31 20 36 25 43 22 C52 18 61 21 62 32 C63 39 62 44 60 45 C46 50 24 50 13 45 Z"/>
      </clipPath>
    </defs>
    <g transform="rotate(-2 36 36)">
      <path d="M11 46 C9 36 13 27 23 23 C31 20 36 25 43 22 C52 18 61 21 62 32 C63 41 61 47 58 50 C50 56 22 56 13 50 C11 49 11 47 11 46 Z"
        fill="rgba(201,162,39,0.25)" stroke="#C9A227" stroke-width="3" stroke-linejoin="round"/>
      <g clip-path="url(#fav-clip)" stroke="#C9A227" stroke-width="2" stroke-linecap="round">
        <line x1="16" y1="20" x2="46" y2="50"/><line x1="28" y1="18" x2="60" y2="48"/>
        <line x1="8" y1="32" x2="32" y2="56"/><line x1="16" y1="52" x2="46" y2="22"/>
        <line x1="28" y1="54" x2="60" y2="24"/><line x1="8" y1="44" x2="30" y2="20"/>
      </g>
      <path d="M13 45 C26 50 46 50 60 45" fill="none" stroke="#C9A227" stroke-width="2" stroke-linecap="round"/>
      <g stroke="#C9A227" stroke-width="1.8" stroke-linecap="round">
        <line x1="23" y1="49" x2="23" y2="53"/><line x1="31" y1="50" x2="31" y2="54"/>
        <line x1="40" y1="50" x2="40" y2="54"/><line x1="48" y1="49" x2="48" y2="53"/>
      </g>
    </g>
  </g>
</svg>
